<?xml version="1.0" encoding="UTF-8" standalone="no"?>
<svg
   xmlns:dc="http://purl.org/dc/elements/1.1/"
   xmlns:cc="http://creativecommons.org/ns#"
   xmlns:rdf="http://www.w3.org/1999/02/22-rdf-syntax-ns#"
   xmlns:svg="http://www.w3.org/2000/svg"
   xmlns="http://www.w3.org/2000/svg"
   xmlns:xlink="http://www.w3.org/1999/xlink"
   xmlns:sodipodi="http://sodipodi.sourceforge.net/DTD/sodipodi-0.dtd"
   xmlns:inkscape="http://www.inkscape.org/namespaces/inkscape"
   inkscape:version="1.0 (4035a4fb49, 2020-05-01)"
   sodipodi:docname="system-suspend.svg"
   id="svg5"
   version="1.1"
   viewBox="0 0 32 32">
  <metadata
     id="metadata9">
    <rdf:RDF>
      <cc:Work
         rdf:about="">
        <dc:format>image/svg+xml</dc:format>
        <dc:type
           rdf:resource="http://purl.org/dc/dcmitype/StillImage" />
      </cc:Work>
    </rdf:RDF>
  </metadata>
  <sodipodi:namedview
     inkscape:document-rotation="0"
     inkscape:current-layer="svg5"
     inkscape:window-maximized="1"
     inkscape:window-y="0"
     inkscape:window-x="0"
     inkscape:cy="24.852353"
     inkscape:cx="16.380047"
     inkscape:zoom="11.87372"
     showgrid="false"
     id="namedview7"
     inkscape:window-height="1013"
     inkscape:window-width="1920"
     inkscape:pageshadow="2"
     inkscape:pageopacity="0"
     guidetolerance="10"
     gridtolerance="10"
     objecttolerance="10"
     borderopacity="1"
     bordercolor="#666666"
     pagecolor="#ffffff">
    <inkscape:grid
       id="grid825"
       type="xygrid" />
  </sodipodi:namedview>
  <defs
     id="defs3051">
    <linearGradient
       inkscape:collect="always"
       id="linearGradient826">
      <stop
         style="stop-color:#4e9fac;stop-opacity:1"
         offset="0"
         id="stop822" />
      <stop
         style="stop-color:#4e51ac;stop-opacity:1"
         offset="1"
         id="stop824" />
    </linearGradient>
    <linearGradient
       id="linearGradient820"
       inkscape:collect="always">
      <stop
         id="stop816"
         offset="0"
         style="stop-color:#2a4c76;stop-opacity:1" />
      <stop
         id="stop818"
         offset="1"
         style="stop-color:#d3dae3;stop-opacity:1" />
    </linearGradient>
    <style
       id="current-color-scheme"
       type="text/css">
      .ColorScheme-Text {
        color:#eff0f1;
      }
      </style>
    <radialGradient
       gradientUnits="userSpaceOnUse"
       gradientTransform="translate(0,-3.3333331e-6)"
       r="11.999999"
       fy="15.999998"
       fx="15.999999"
       cy="15.999998"
       cx="15.999999"
       id="radialGradient817"
       xlink:href="#linearGradient820"
       inkscape:collect="always" />
    <linearGradient
       gradientTransform="matrix(1.1320751,0,0,1.1320751,-1.9093369,-2.2845197)"
       gradientUnits="userSpaceOnUse"
       y2="16.062994"
       x2="29.246548"
       y1="16.062994"
       x1="2.7465653"
       id="linearGradient829"
       xlink:href="#linearGradient826"
       inkscape:collect="always" />
  </defs>
  <path
     sodipodi:nodetypes="ccccccccccccccccccccccccccccccccccccccccccccc"
     inkscape:connector-curvature="0"
     class="ColorScheme-Text"
     d="M 10.216059,3.999996 C 6.36165,6.3471 4.006562,10.53215 4,15.04594 4,22.20027 9.798203,28 16.95064,28 21.46591,27.996 25.652707,25.6384 27.999999,21.78019 L 27.209551,20.98954 C 25.405202,22.04058 23.356021,22.39641 21.268,22.402 14.890411,22.580816 10.086781,17.776831 9.596,10.72792 9.5993,8.6383 10.154052,6.58663 11.204,4.7801 Z M 9.309675,5.81744 C 8.662452,7.37405 8.125327,9.04207 8.117,10.72792 c 0,7.305313 5.998081,13.352636 13.150521,13.15408 1.70769,-0.004 3.397587,-0.54726 4.972421,-1.20784 L 25.622,22.81331 C 23.368941,25.41932 20.395053,26.61755 16.95064,26.62 10.877206,26.426811 5.8713374,21.447195 5.479,15.046 5.4837,11.59899 6.986748,8.32425 9.596,6.07256 Z m 13.023666,2.93264 v 0 0 0 0 0 0 z m -0.355302,5.3124 H 23.81137 V 15 h -3.666666 l 1.833335,-2.81258 h -1.833332 v -0.93753 h 3.666659 z m -5.1447,-4.00001 H 18.66667 V 11 H 15.000004 L 16.833339,8.18743 H 15.000007 V 7.2499 h 3.66666 z"
     id="path902-3"
     style="color:#eff0f1;fill:url(#radialGradient817);fill-opacity:1;stroke:none" />
  <rect
     rx="14.325811"
     style="opacity:0.15;fill:url(#linearGradient829);fill-opacity:1;stroke:none;stroke-width:0.999999"
     id="rect4130"
     width="29.999983"
     height="30"
     x="1"
     y="1"
     ry="14.325811" />
  <path
     sodipodi:nodetypes="cccccccccccccscscscccc"
     inkscape:connector-curvature="0"
     style="fill:#2a4c76;fill-opacity:1;stroke-width:0.00306059"
     id="path4-3"
     d="M 14.856333,1.0429047 C 8.5122698,1.5266917 3.0834946,6.0465887 1.4803451,12.191341 0.85279453,14.60995 0.83748841,17.300594 1.4500629,19.69656 c 1.5802002,6.258276 7.084878,10.846114 13.5195691,11.269606 3.65203,0.241742 7.198451,-0.816397 10.124672,-3.030912 0.794055,-0.597002 2.238033,-2.040701 2.835581,-2.834459 4.468769,-5.910663 4.015098,-14.111416 -1.073569,-19.4324253 -3.138054,-3.272346 -7.51621,-4.96542599 -11.999983,-4.625465 z m 2.011223,1.884945 c 1.640815,0.136171 3.833872,0.922277 5.19489,1.602519 2.40459,1.201649 4.315708,3.19156 5.532848,5.6028283 1.655813,3.302944 1.958874,7.877924 0.303061,11.180869 -1.217447,2.410961 -3.537547,5.164639 -5.949479,6.3816 -1.698352,0.850713 -3.916465,1.364171 -6.120041,1.336438 -2.083654,-0.02626 -4.154322,-0.547318 -5.760252,-1.351738 C 7.025185,26.149828 4.6917963,23.371336 3.5734805,20.153812 2.4995409,17.064004 2.506233,13.563371 3.954563,10.656789 4.8694545,8.8203887 6.4129061,6.8152197 8.2415556,5.4253797 c 1.9043114,-1.447343 4.3167424,-2.245228 6.4112124,-2.407258 0.415711,-0.03761 1.133568,-0.123011 1.194179,-0.123011 0.0603,-0.0071 0.521632,-0.0046 1.020609,0.03276 z" />
</svg>
