<?xml version="1.0" encoding="UTF-8" standalone="no"?>
<svg
   xmlns:dc="http://purl.org/dc/elements/1.1/"
   xmlns:cc="http://creativecommons.org/ns#"
   xmlns:rdf="http://www.w3.org/1999/02/22-rdf-syntax-ns#"
   xmlns:svg="http://www.w3.org/2000/svg"
   xmlns="http://www.w3.org/2000/svg"
   xmlns:sodipodi="http://sodipodi.sourceforge.net/DTD/sodipodi-0.dtd"
   xmlns:inkscape="http://www.inkscape.org/namespaces/inkscape"
   viewBox="0 0 24 24"
   version="1.1"
   id="svg8"
   sodipodi:docname="office-chart-pie.svg"
   inkscape:version="0.92.4 (5da689c313, 2019-01-14)">
  <metadata
     id="metadata12">
    <rdf:RDF>
      <cc:Work
         rdf:about="">
        <dc:format>image/svg+xml</dc:format>
        <dc:type
           rdf:resource="http://purl.org/dc/dcmitype/StillImage" />
      </cc:Work>
    </rdf:RDF>
  </metadata>
  <sodipodi:namedview
     pagecolor="#ffffff"
     bordercolor="#666666"
     borderopacity="1"
     objecttolerance="10"
     gridtolerance="10"
     guidetolerance="10"
     inkscape:pageopacity="0"
     inkscape:pageshadow="2"
     inkscape:window-width="1920"
     inkscape:window-height="1015"
     id="namedview10"
     showgrid="false"
     inkscape:zoom="9.8333333"
     inkscape:cx="-24.508475"
     inkscape:cy="12.305085"
     inkscape:window-x="0"
     inkscape:window-y="0"
     inkscape:window-maximized="1"
     inkscape:current-layer="svg8" />
  <defs
     id="defs3051">
    <style
       type="text/css"
       id="current-color-scheme">
      .ColorScheme-Text {
        color:#eff0f1;
      }
      </style>
  </defs>
  <g
     transform="translate(1,1)"
     id="g6">
    <path
       style="fill:#2a4c76;fill-opacity:1;stroke:none"
       d="M 11 3 C 6.568 3 3 6.568 3 11 C 3 15.432 6.568 19 11 19 C 15.432 19 19 15.432 19 11 C 19 6.568 15.432 3 11 3 z M 11 4 L 11 11 L 18 10.992188 L 18 11 C 18 14.878 14.878 18 11 18 C 7.122 18 4 14.878 4 11 C 4 7.122 7.122 4 11 4 z "
       class="ColorScheme-Text"
       id="path4" />
  </g>
  <path
     d="m 12.049,2.0115729 c 5.513566,0 10.041427,4.463571 10.041427,10.0414281 0,5.577859 -4.527861,9.974999 -10.041427,9.974999 -5.5135673,0 -10.041432,-4.461434 -10.041432,-9.974999 0,-5.5114286 4.529999,-10.0414281 10.041432,-10.0414281 m 0,-0.4585721 c -5.775,0 -10.5,4.7250002 -10.5,10.5000002 0,5.774999 4.725,10.499999 10.5,10.499999 5.775,0 10.5,-4.725 10.5,-10.499999 0,-5.775 -4.725,-10.5000002 -10.5,-10.5000002 z"
     id="path8"
     style="fill:#2a4c76;fill-opacity:1;stroke-width:0.02142856"
     inkscape:connector-curvature="0" />
</svg>
