<?xml version="1.0" encoding="utf-8"?>
<!-- Generator: Adobe Illustrator 22.0.0, SVG Export Plug-In . SVG Version: 6.00 Build 0)  -->
<svg version="1.1"
	 id="svg4428" inkscape:version="0.92.4 (unknown)" sodipodi:docname="close.svg" xmlns:cc="http://creativecommons.org/ns#" xmlns:dc="http://purl.org/dc/elements/1.1/" xmlns:inkscape="http://www.inkscape.org/namespaces/inkscape" xmlns:rdf="http://www.w3.org/1999/02/22-rdf-syntax-ns#" xmlns:sodipodi="http://sodipodi.sourceforge.net/DTD/sodipodi-0.dtd" xmlns:svg="http://www.w3.org/2000/svg"
	 xmlns="http://www.w3.org/2000/svg" xmlns:xlink="http://www.w3.org/1999/xlink" x="0px" y="0px" viewBox="0 0 119.5 29.9"
	 style="enable-background:new 0 0 119.5 29.9;" xml:space="preserve">
<style type="text/css">
	.st0{fill:#FF1A2E;}
	.st1{fill:#1F1F20;}
	.st2{fill:#E81A33;}
</style>
<sodipodi:namedview  bordercolor="#666666" borderopacity="1.0" id="base" inkscape:current-layer="layer1" inkscape:cx="82.395037" inkscape:cy="7.4404904" inkscape:document-units="px" inkscape:guide-bbox="true" inkscape:pageopacity="1" inkscape:pageshadow="2" inkscape:showpageshadow="false" inkscape:snap-bbox="true" inkscape:window-height="713" inkscape:window-maximized="1" inkscape:window-width="1366" inkscape:window-x="0" inkscape:window-y="25" inkscape:zoom="1.684726" pagecolor="#eff0f1" showborder="false" showgrid="false" showguides="true">
	
		<inkscape:grid  empspacing="5" enabled="true" id="grid4436" originx="0" originy="0" snapvisiblegridlinesonly="true" spacingx="1.0666667" spacingy="1.0666667" type="xygrid" visible="true">
		</inkscape:grid>
	<sodipodi:guide  id="guide916" inkscape:locked="false" orientation="0,1" position="47.999912,4.8786796"></sodipodi:guide>
</sodipodi:namedview>
<g id="layer1" transform="translate(0,-1092.653)" inkscape:groupmode="layer" inkscape:label="Layer 1">
	<g id="_x34_" transform="translate(86.4,-3.2)" inkscape:label="#g3842">
	</g>
	<g id="active-center" transform="matrix(0.02211836,0,0,-0.02211825,2.8148384,1117.8901)">
		<g>
			<path id="path4094_8_" inkscape:connector-curvature="0" inkscape:export-xdpi="96" inkscape:export-ydpi="96" class="st0" d="
				M507.2,11.3c242.9,0,439.8,196.9,439.8,439.8c0,242.9-196.9,439.8-439.8,439.8C264.3,890.9,67.4,694,67.4,451.1
				C67.4,208.2,264.3,11.3,507.2,11.3"/>
		</g>
	</g>
	<g id="hover-center" transform="matrix(0.02211825,0,0,-0.02211826,25.480173,1117.8188)">
		<path id="path4094-6" inkscape:connector-curvature="0" inkscape:export-xdpi="96" inkscape:export-ydpi="96" class="st0" d="
			M462.9,887.7c242.9,0,439.8-194.4,439.8-434.1S705.8,19.5,462.9,19.5C220,19.5,23,213.8,23,453.6S220,887.7,462.9,887.7"/>
	</g>
	<g id="pressed-center" transform="matrix(0.02211825,0,0,-0.02211836,47.96021,1117.9438)">
		<path id="path14-4" inkscape:connector-curvature="0" class="st0" d="M461.9,10.3c251.8,0,455.9,204.1,455.9,455.9
			c0,251.8-204.1,455.9-455.9,455.9C210.1,922.1,5.9,718,5.9,466.2C5.9,214.4,210.1,10.3,461.9,10.3"/>
		<path id="path16-2" inkscape:connector-curvature="0" class="st0" d="M461.9,49.1C692.3,49.1,879,235.8,879,466.2
			c0,230.4-186.8,417.2-417.1,417.2c-230.4,0-417.2-186.8-417.2-417.2C44.7,235.8,231.5,49.1,461.9,49.1"/>
	</g>
	<g id="inactive-center" transform="matrix(0.02211826,0,0,-0.02211835,75.008737,1117.8241)">
		<path id="path4199" inkscape:connector-curvature="0" class="st1" d="M289.1,8.3c251.8,0,455.9,204.1,455.9,455.9
			c0,251.8-204.1,455.9-455.9,455.9c-251.8,0-455.9-204.1-455.9-455.9C-166.8,212.4,37.3,8.3,289.1,8.3"/>
		<path id="path4201" inkscape:connector-curvature="0" class="st1" d="M289.1,47.1c230.4,0,417.2,186.8,417.2,417.2
			c0,230.4-186.8,417.2-417.2,417.2C58.7,881.4-128,694.6-128,464.2C-128,233.8,58.7,47.1,289.1,47.1"/>
	</g>
	<g id="deactivated-center" transform="matrix(0.02211826,0,0,-0.02211835,96.716341,1117.8241)">
		<path id="path4199-2" inkscape:connector-curvature="0" class="st1" d="M313.4,8.3c251.8,0,455.9,204.1,455.9,455.9
			c0,251.8-204.1,455.9-455.9,455.9c-251.8,0-455.9-204.1-455.9-455.9C-142.5,212.4,61.6,8.3,313.4,8.3"/>
		<path id="path4201-6" inkscape:connector-curvature="0" class="st1" d="M313.4,47.1c230.4,0,417.2,186.8,417.2,417.2
			c0,230.4-186.8,417.2-417.2,417.2c-230.4,0-417.2-186.8-417.2-417.2C-103.7,233.8,83,47.1,313.4,47.1"/>
	</g>
	<path id="path16-2_1_" inkscape:connector-curvature="0" class="st2" d="M35.7,1117c5.1,0,9.2-4.1,9.2-9.2c0-5.1-4.1-9.2-9.2-9.2
		c-5.1,0-9.2,4.1-9.2,9.2C26.5,1112.9,30.6,1117,35.7,1117"/>
</g>
</svg>
