<?xml version="1.0" encoding="utf-8"?>
<!-- Generator: Adobe Illustrator 22.0.0, SVG Export Plug-In . SVG Version: 6.00 Build 0)  -->
<svg version="1.1"
	 id="svg4428" inkscape:version="0.92.4 (unknown)" sodipodi:docname="maximize.svg" xmlns:cc="http://creativecommons.org/ns#" xmlns:dc="http://purl.org/dc/elements/1.1/" xmlns:inkscape="http://www.inkscape.org/namespaces/inkscape" xmlns:rdf="http://www.w3.org/1999/02/22-rdf-syntax-ns#" xmlns:sodipodi="http://sodipodi.sourceforge.net/DTD/sodipodi-0.dtd" xmlns:svg="http://www.w3.org/2000/svg"
	 xmlns="http://www.w3.org/2000/svg" xmlns:xlink="http://www.w3.org/1999/xlink" x="0px" y="0px" viewBox="0 0 119.5 29.9"
	 style="enable-background:new 0 0 119.5 29.9;" xml:space="preserve">
<style type="text/css">
	.st0{fill:#FF8B00;}
	.st1{fill:#FF7900;}
	.st2{fill:#272728;}
	.st3{fill:#5B5C63;}
</style>
<sodipodi:namedview  bordercolor="#666666" borderopacity="1.0" id="base" inkscape:current-layer="pressed-center" inkscape:cx="63.105281" inkscape:cy="16.307248" inkscape:document-units="px" inkscape:guide-bbox="true" inkscape:pageopacity="1" inkscape:pageshadow="2" inkscape:showpageshadow="false" inkscape:snap-bbox="true" inkscape:window-height="713" inkscape:window-maximized="1" inkscape:window-width="1366" inkscape:window-x="0" inkscape:window-y="25" inkscape:zoom="1.7878397" pagecolor="#eff0f1" showborder="false" showgrid="false" showguides="true">
	
		<inkscape:grid  empspacing="5" enabled="true" id="grid4436" originx="0" originy="0" snapvisiblegridlinesonly="true" spacingx="1.0666667" spacingy="1.0666667" type="xygrid" visible="true">
		</inkscape:grid>
	<sodipodi:guide  id="guide911" inkscape:locked="false" orientation="0,1" position="22.586939,5.26219"></sodipodi:guide>
</sodipodi:namedview>
<g id="layer1" transform="translate(0,-1092.653)" inkscape:groupmode="layer" inkscape:label="Layer 1">
	<g id="_x34_" transform="translate(86.4,-3.2)" inkscape:label="#g3842">
	</g>
	<g id="active-center" transform="matrix(0.02211836,0,0,-0.02211825,2.3498265,1117.2686)">
		<path id="path4289" inkscape:connector-curvature="0" class="st0" d="M486.8,0.5c251.8,0,455.9,204.1,455.9,455.9
			c0,251.8-204.1,455.9-455.9,455.9C235,912.4,30.9,708.3,30.9,456.4C30.9,204.6,235,0.5,486.8,0.5"/>
		<path id="path4291" inkscape:connector-curvature="0" class="st0" d="M486.8,33.1c233.8,0,423.4,189.6,423.4,423.4
			c0,233.8-189.5,423.4-423.4,423.4C253,879.8,63.4,690.3,63.4,456.4C63.4,222.6,253,33.1,486.8,33.1"/>
	</g>
	<g id="hover-center" transform="matrix(0.02211825,0,0,-0.02211826,24.718465,1117.1973)">
		<path id="path4289-5" inkscape:connector-curvature="0" class="st0" d="M538.3-2.7c251.8,0,455.9,204.1,455.9,455.9
			c0,251.8-204.1,455.9-455.9,455.9C286.5,909.2,82.4,705,82.4,453.2C82.4,201.4,286.5-2.7,538.3-2.7"/>
		<path id="path4291-6" inkscape:connector-curvature="0" class="st1" d="M535.5,29.8c233.8,0,423.4,189.6,423.4,423.4
			c0,233.8-189.5,423.4-423.4,423.4c-233.8,0-423.4-189.6-423.4-423.4C112.1,219.4,301.7,29.8,535.5,29.8"/>
		<g id="g4147" transform="matrix(1.0825743,0,0,1.0825744,63.67242,-3.6750239)">
			
				<ellipse transform="matrix(2.146229e-03 -1 1 2.146229e-03 15.4771 859.6008)" class="st2" cx="438.5" cy="422" rx="5.3" ry="5.3"/>
		</g>
		<circle class="st2" cx="538.3" cy="453.2" r="275.5"/>
	</g>
	<g id="pressed-center" transform="matrix(0.02211825,0,0,-0.02211836,49.284741,1117.3223)">
		<path id="path4289-2" inkscape:connector-curvature="0" class="st0" d="M531.9,2.9c251.8,0,455.9,204.1,455.9,455.9
			c0,251.8-204.1,455.9-455.9,455.9C280,914.8,75.9,710.7,75.9,458.9C75.9,207.1,280,2.9,531.9,2.9"/>
		<path id="path4291-7" inkscape:connector-curvature="0" class="st0" d="M531.9,35.5c233.8,0,423.4,189.6,423.4,423.4
			c0,233.8-189.5,423.4-423.4,423.4c-233.8,0-423.4-189.6-423.4-423.4C108.5,225.1,298,35.5,531.9,35.5"/>
		<circle class="st2" cx="531.9" cy="458.9" r="275.5"/>
	</g>
	<g id="inactive-center" transform="matrix(0.02211825,0,0,-0.02211835,93.232543,1134.7033)">
		<path id="path4199" inkscape:connector-curvature="0" class="st3" d="M-419.9,788.8c251.8,0,455.9,204.1,455.9,455.9
			c0,251.8-204.1,455.9-455.9,455.9c-251.8,0-455.9-204.1-455.9-455.9C-875.9,992.9-671.7,788.8-419.9,788.8"/>
		<path id="path4201" inkscape:connector-curvature="0" class="st3" d="M-419.9,827.5c230.4,0,417.2,186.8,417.2,417.2
			c0,230.4-186.8,417.2-417.2,417.2c-230.4,0-417.2-186.8-417.2-417.2C-837.1,1014.3-650.3,827.5-419.9,827.5"/>
	</g>
	<g id="deactivated-center" transform="matrix(0.02211825,0,0,-0.02211835,98.146687,1121.2793)">
		<path id="path4199-3" inkscape:connector-curvature="0" class="st3" d="M325.2,181.8c251.8,0,455.9,204.1,455.9,455.9
			c0,251.8-204.1,455.9-455.9,455.9c-251.8,0-455.9-204.1-455.9-455.9C-130.7,386,73.4,181.8,325.2,181.8"/>
		<path id="path4201-6" inkscape:connector-curvature="0" class="st3" d="M325.2,220.6c230.4,0,417.2,186.8,417.2,417.2
			c0,230.4-186.8,417.2-417.2,417.2C94.8,1054.9-92,868.2-92,637.8C-92,407.4,94.8,220.6,325.2,220.6"/>
	</g>
</g>
</svg>
