<?xml version="1.0" encoding="utf-8"?>
<!-- Generator: Adobe Illustrator 22.0.0, SVG Export Plug-In . SVG Version: 6.00 Build 0)  -->
<svg version="1.1"
	 id="svg4428" inkscape:version="0.92.4 (unknown)" sodipodi:docname="minimize.svg" xmlns:cc="http://creativecommons.org/ns#" xmlns:dc="http://purl.org/dc/elements/1.1/" xmlns:inkscape="http://www.inkscape.org/namespaces/inkscape" xmlns:rdf="http://www.w3.org/1999/02/22-rdf-syntax-ns#" xmlns:sodipodi="http://sodipodi.sourceforge.net/DTD/sodipodi-0.dtd" xmlns:svg="http://www.w3.org/2000/svg"
	 xmlns="http://www.w3.org/2000/svg" xmlns:xlink="http://www.w3.org/1999/xlink" x="0px" y="0px" viewBox="0 0 119.5 29.9"
	 style="enable-background:new 0 0 119.5 29.9;" xml:space="preserve">
<style type="text/css">
	.st0{fill:#E2E2E2;}
	.st1{fill:#D3D3D3;}
	.st2{fill:#272728;}
</style>
<sodipodi:namedview  bordercolor="#666666" borderopacity="1.0" id="base" inkscape:current-layer="pressed-center" inkscape:cx="27.669193" inkscape:cy="15.20261" inkscape:document-units="px" inkscape:guide-bbox="true" inkscape:pageopacity="1" inkscape:pageshadow="2" inkscape:showpageshadow="false" inkscape:snap-bbox="true" inkscape:window-height="713" inkscape:window-maximized="1" inkscape:window-width="1366" inkscape:window-x="0" inkscape:window-y="25" inkscape:zoom="18.526428" pagecolor="#eff0f1" showborder="false" showgrid="false" showguides="true">
	
		<inkscape:grid  empspacing="5" enabled="true" id="grid4436" originx="0" originy="0" snapvisiblegridlinesonly="true" spacingx="1.0666667" spacingy="1.0666667" type="xygrid" visible="true">
		</inkscape:grid>
	<sodipodi:guide  id="guide904" inkscape:locked="false" orientation="0,1" position="69.576283,3.7783862"></sodipodi:guide>
</sodipodi:namedview>
<g id="_x34_" transform="translate(86.4,-3.2)" inkscape:label="#g3842">
</g>
<g id="active-center" transform="matrix(0.02211825,0,0,-0.02211825,5.3617794,1118.3072)">
	
		<path id="path4417" inkscape:connector-curvature="0" inkscape:export-xdpi="95.99958" inkscape:export-ydpi="95.99958" class="st0" d="
		M461.3,49402c251.8,0,455.9,204.1,455.9,455.9c0,251.8-204.1,455.9-455.9,455.9S5.4,50109.7,5.4,49857.9
		C5.3,49606.1,209.5,49402,461.3,49402"/>
	
		<path id="path4419" inkscape:connector-curvature="0" inkscape:export-xdpi="95.99958" inkscape:export-ydpi="95.99958" class="st0" d="
		M461.3,49434.6c233.8,0,423.4,189.6,423.4,423.4c0,233.8-189.5,423.4-423.4,423.4c-233.8,0-423.4-189.6-423.4-423.4
		C37.9,49624.1,227.4,49434.6,461.3,49434.6"/>
</g>
<g id="hover-center" transform="matrix(0.02211825,0,0,-0.02211835,27.612082,1118.5092)">
	<path id="path14-9" inkscape:connector-curvature="0" class="st0" d="M461.9,49404c251.8,0,455.9,204.1,455.9,455.9
		c0,251.8-204.1,455.9-455.9,455.9c-251.8,0-455.9-204.1-455.9-455.9C6,49608.1,210.1,49404,461.9,49404"/>
	<path id="path16-6" inkscape:connector-curvature="0" class="st1" d="M461.9,49442.7c230.4,0,417.2,186.8,417.2,417.2
		s-186.8,417.2-417.2,417.2s-417.2-186.8-417.2-417.2C44.8,49629.5,231.5,49442.7,461.9,49442.7"/>
	<path id="path4186-7-3-3_1_" class="st2" d="M449.5,50171.8c-18.1,0-31.6,0-49.7-4.5c149.2-22.6,262.2-153.7,262.2-307.4
		c0-153.7-113-284.8-262.2-307.4c13.6-4.5,31.6-4.5,49.7-4.5c171.8,0,312,140.2,312,312C761.4,50031.7,621.3,50171.8,449.5,50171.8z
		"/>
</g>
<g id="inactive-center" transform="matrix(0.02211826,0,0,-0.02211835,74.253664,1118.3354)">
	<path id="path4199" inkscape:connector-curvature="0" class="st2" d="M456.4,49383.5c251.8,0,455.9,204.1,455.9,455.9
		c0,251.8-204.1,455.9-455.9,455.9S0.5,50091.2,0.5,49839.4C0.5,49587.7,204.6,49383.5,456.4,49383.5"/>
	<path id="path4201" inkscape:connector-curvature="0" class="st2" d="M456.4,49422.3c230.4,0,417.2,186.8,417.2,417.2
		s-186.8,417.2-417.2,417.2s-417.2-186.8-417.2-417.2C39.2,49609.1,226,49422.3,456.4,49422.3"/>
</g>
<g id="pressed-center" transform="matrix(0.02211815,0,0,-0.02211836,51.116041,1118.95)">
	<path id="path14-26" inkscape:connector-curvature="0" class="st0" d="M464.9,49412.2c251.8,0,455.9,204.1,455.9,455.9
		c0,251.8-204.1,455.9-455.9,455.9S9,50119.9,9,49868.1S213.1,49412.2,464.9,49412.2"/>
	<path id="path16-4" inkscape:connector-curvature="0" class="st0" d="M464.9,49450.9c230.4,0,417.2,186.8,417.2,417.2
		s-186.8,417.2-417.2,417.2s-417.1-186.8-417.1-417.2C47.7,49637.7,234.5,49450.9,464.9,49450.9"/>
	<path id="path4186-7-3-3-3_1_" class="st2" d="M452.4,50170.5c-18.1,0-31.6,0-49.7-4.5c149.2-22.6,262.2-153.7,262.2-307.4
		c0-153.7-113-284.8-262.2-307.4c13.6-4.5,31.6-4.5,49.7-4.5c171.8,0,312,140.2,312,312C764.4,50030.5,624.3,50170.5,452.4,50170.5z
		"/>
</g>
<g id="deactivated-center" transform="matrix(0.02211826,0,0,-0.02211835,96.976978,1118.1454)">
	<path id="path4199-3" inkscape:connector-curvature="0" class="st2" d="M485.1,49374.9c251.8,0,455.9,204.1,455.9,455.9
		c0,251.8-204.1,455.9-455.9,455.9s-455.9-204.1-455.9-455.9C29.1,49579.1,233.3,49374.9,485.1,49374.9"/>
	<path id="path4201-6" inkscape:connector-curvature="0" class="st2" d="M485.1,49413.7c230.4,0,417.2,186.8,417.2,417.2
		s-186.8,417.2-417.2,417.2s-417.2-186.8-417.2-417.2C67.9,49600.5,254.7,49413.7,485.1,49413.7"/>
</g>
</svg>
